<?xml version="1.0" encoding="UTF-8"?>
<svg id="Layer_1" data-name="Layer 1" xmlns="http://www.w3.org/2000/svg" viewBox="0 0 1457.66 571.41">
  <defs>
    <style>
      .cls-1 {
        fill: none;
        fill-rule: evenodd;
        stroke: #000;
        stroke-miterlimit: 10;
      }
    </style>
  </defs>
  <path class="cls-1" d="M729.9.66l68,37,17,272,107-44c10.32-4.38,31.26-18.38,41-15,2.33,21.66,4.67,43.34,7,65-51.99,16.33-104.01,32.67-156,49v103h1c52.66-17,158-51,158-51l2,2-39,70-177,82-33-395-13-149,17-26Z"/>
  <path class="cls-1" d="M1374.9,567.66h-14s-37.34-76-56-114c-37.41-84.65-109-256-109-256l-34-81,13-92,15-11h1s116.79,244.05,120,246c40.33,12,80.67,24,121,36,8.33,34.66,16.67,69.34,25,104-40.66-24.33-81.34-48.67-122-73l31,75,9,166Z"/>
  <path class="cls-1" d="M320.9,39.66l46,141-226,300s-68,44.67-102,67l-9-5c36.33-39.33,109-118,109-118l91-180c28.07-48.08,49.26-96.66,71-152l20-53Z"/>
  <path class="cls-1" d="M1006.9,112.66c-2.33,33.66-4.67,67.34-7,101-12,6.67-24,13.33-36,20,1-26.33,2-52.67,3-79,13.33-14,26.67-28,40-42Z"/>
  <path class="cls-1" d="M954.9,121.66c-3,36.66-6,73.34-9,110l-34,12v-77c14.33-15,28.67-30,43-45Z"/>
  <path class="cls-1" d="M7.9,225.66c28.33.33,56.67.67,85,1l59,41-3,3-18,24c-41-23-82-46-123-69Z"/>
  <path class="cls-1" d="M543.9,228.66h4l-97,89-54,172-42,29-7-5,73-189-94,71-40-7v-1l3-10,119-66,69-67,66-16Z"/>
  <path class="cls-1" d="M.9,243.66c39.66,21.66,79.34,43.34,119,65l-7,7-14,17C48.1,308.54,20.57,300.42.9,243.66Z"/>
  <path class="cls-1" d="M519.9,286.66l93,23-10,11-13,11-99-15,29-30Z"/>
  <path class="cls-1" d="M665.9,307.66l61,6-1,2-191,134c-10.41-1.42-60.37-15.2-62-22h2l191-120Z"/>
  <path class="cls-1" d="M1165.9,319.66h32c-13.67,19-27.33,38-41,57l-174,4,20-58,163-3Z"/>
</svg>