<?xml version="1.0" encoding="UTF-8"?>
<svg id="Layer_1" data-name="Layer 1" xmlns="http://www.w3.org/2000/svg" viewBox="0 0 1463 570">
  <defs>
    <style>
      .cls-1 {
        fill: none;
        fill-rule: evenodd;
      }
    </style>
  </defs>
  <path class="cls-1" d="M1245,59c25,23.66,50,47.34,75,71-4.67,44-9.33,88-14,132,23.12,9.96,149.16,58.81,157,71-17.33,17.66-34.67,35.34-52,53l-112-55c-3.33,37-6.67,74-10,111-22.33,37.33-44.67,74.67-67,112h-4c.26-163.04,25-329.78,27-495Z"/>
  <path class="cls-1" d="M324,130c14.66,5.22,37.19,34.69,43,49-39.32,129.48-130.61,231.57-229,304-18.34,13.5-83.87,66.16-108,60v-1c36.33-39.66,72.67-79.34,109-119,68.09-79.65,114.91-156.57,143-279l42-14Z"/>
  <path class="cls-1" d="M1000,154c5.33,6.66,6.65,64.12-1,69-50.06,24.05-37.2-20.09-35-59l36-10Z"/>
  <path class="cls-1" d="M484,161c12.68,4.66,21.52,26.48,29,37l22,30c1.81,21.17-72.75,58.59-78,79l-11,179-30,17-33,17,14-165c-51.69,12.68-56,65.8-124,36v-4c55.87-26.95,194.28-163.55,211-226Z"/>
  <path class="cls-1" d="M121,165c10.1,5.76,56.74,96.92,57,110l-26,13-55-118h3l21-5Z"/>
  <path class="cls-1" d="M949,168c6.99,6.75,5.64,61,2,69-13.38,1.67-29.2,9.07-39,6,2.54-17.79-6.14-51.73,3-66l34-9Z"/>
  <path class="cls-1" d="M85,172c9.02,6.25,55.56,114.86,54,128l-51,29c-17.66-49.33-35.34-98.67-53-148h3c15.67-3,31.33-6,47-9Z"/>
  <path class="cls-1" d="M834,180c3.62,2.73-16.48,108.61-19,129,43.24-4.39,107.05-43.54,146-61l2,3c2.33,21.33,4.67,42.67,7,64-48.76,18.31-101.12,39-156,49v56c44.68,15.64,116.3,6.74,160-4l1,1c-2.15,12.08-30.04,65.83-38,70-53.36,12.88-156.25,13.77-182-20-14.69-19.27-3.17-237.86,9-268l70-19Z"/>
  <path class="cls-1" d="M554,230l83,57-2,3-39,49-4-1c-19-21.81-65.21-38.98-79-60l41-48Z"/>
  <path class="cls-1" d="M725,276h3c26.96,97.92-113.69,200.86-193,224l-47-68v-4c105.61-7.86,195.79-77.29,237-152Z"/>
  <path class="cls-1" d="M1178,317l41,1-35,58-201,4,4-58,191-5Z"/>
  <path class="cls-1" d="M1160.59,110.97l11.53-83.81,18.05-14.81,47.86,100.69,70.98,145.96,123,36,25,104-123-74s17.08,42.12,31.77,76.24c-1.85,43.46,11.16,121.92,9.31,165.38-1.17.64-12.28-.35-13.45.29-77.45-143.47-201.05-455.93-201.05-455.93Z"/>
  <path class="cls-1" d="M322,38l45,141-229,304-99,64s-9-4.67-9-5c36.33-39.66,109-119,109-119l143-279,40-106Z"/>
  <path class="cls-1" d="M1008,111l-8,102-36,20,3-78,41-44Z"/>
  <path class="cls-1" d="M479,244l71-17-99,90-54,172-42,29-6.83-5.14,73.83-189.86-95,72-40-7,3-11,118-66,71-67Z"/>
  <path class="cls-1" d="M92,226l60,41-21,27L7,225l85,1Z"/>
  <path class="cls-1" d="M956,120l-9,110-35,13v-76l44-47Z"/>
  <path class="cls-1" d="M0,242l120,66-21,24-68-33L0,242Z"/>
  <path class="cls-1" d="M798,36l17,273,146-61,2,3c2.33,21.33,7,64,7,64l-156,49v103l160-51,1,1c-2.15,12.08-38,70-38,70l-178,83L713,27l17-27,68,36Z"/>
  <path class="cls-1" d="M520,286l94,23-24,22-100-15,30-30Z"/>
  <path class="cls-1" d="M667,307l61,6-194,136-60.99-17.62v-3.94l193.99-120.44Z"/>
  <path class="cls-1" d="M1198,319l-41,57-174,4,20-58,195-3Z"/>
</svg>